<?xml version="1.0" encoding="UTF-8" standalone="no"?>
<!-- Created with Inkscape (http://www.inkscape.org/) -->

<svg
   xmlns:dc="http://purl.org/dc/elements/1.1/"
   xmlns:cc="http://creativecommons.org/ns#"
   xmlns:rdf="http://www.w3.org/1999/02/22-rdf-syntax-ns#"
   xmlns:svg="http://www.w3.org/2000/svg"
   xmlns="http://www.w3.org/2000/svg"
   xmlns:sodipodi="http://sodipodi.sourceforge.net/DTD/sodipodi-0.dtd"
   xmlns:inkscape="http://www.inkscape.org/namespaces/inkscape"
   width="394"
   height="120.77"
   id="svg3524"
   version="1.1"
   inkscape:version="0.48.1 "
   sodipodi:docname="New document 3">
  <defs
     id="defs3526" />
  <sodipodi:namedview
     id="base"
     pagecolor="#ffffff"
     bordercolor="#666666"
     borderopacity="1.0"
     inkscape:pageopacity="0.0"
     inkscape:pageshadow="2"
     inkscape:zoom="2.8"
     inkscape:cx="201.64475"
     inkscape:cy="60.773703"
     inkscape:document-units="px"
     inkscape:current-layer="layer1"
     showgrid="false"
     fit-margin-top="0"
     fit-margin-left="0"
     fit-margin-right="0"
     fit-margin-bottom="0"
     inkscape:window-width="1280"
     inkscape:window-height="720"
     inkscape:window-x="-8"
     inkscape:window-y="-8"
     inkscape:window-maximized="1" />
  <metadata
     id="metadata3529">
    <rdf:RDF>
      <cc:Work
         rdf:about="">
        <dc:format>image/svg+xml</dc:format>
        <dc:type
           rdf:resource="http://purl.org/dc/dcmitype/StillImage" />
        <dc:title></dc:title>
      </cc:Work>
    </rdf:RDF>
  </metadata>
  <g
     inkscape:label="Layer 1"
     inkscape:groupmode="layer"
     id="layer1"
     transform="translate(-268.98718,-295.62006)">
    <g
       id="g3569"
       transform="matrix(2.4603926,0,0,2.4603926,-391.75543,-609.44049)">
      <path
         inkscape:connector-curvature="0"
         id="path496"
         style="fill:#231f20;fill-opacity:1;fill-rule:evenodd;stroke:none"
         d="m 408.35643,373.53768 0,3.04375 -2.58563,0 0,-3.04375 2.58563,0 z m -94.595,2.94563 -0.58888,0.36 c 0.90001,1.88175 2.4055,3.24 3.76338,3.24 1.45625,0 2.45475,-0.93263 2.45475,-2.02925 0,-0.27788 -0.0492,-0.6215 -0.18038,-0.91637 l 0.033,-0.0326 c 0.29437,0.21263 1.22737,0.52375 1.40737,0.52375 0.19625,0 0.40887,-0.0163 0.58887,-0.0819 l -0.0819,2.33962 1.5545,1.034 0,-7.38288 0.81813,0 0.81812,0 0.37638,0 -0.1145,6.34888 1.57075,1.034 0,-7.38288 1.24087,0 0.73913,0 1.83262,0 c 0.2455,0.36038 0.34363,0.78563 0.34363,0.98226 0,0.147 -0.19625,0.35999 -0.36,0.44149 -0.311,0.16363 -1.34175,0.54038 -1.76738,0.6055 0.40925,2.0945 1.76738,3.56738 3.19113,3.56738 0.58924,-2.5e-4 1.47262,-0.34363 2.07812,-0.75288 l -0.0819,1.50513 1.5545,1.034 0,-7.38288 0.78274,0 0.8535,0 6.889,0 0,1.86563 c -0.32712,-0.32713 -1.0145,-0.6215 -1.40712,-0.6215 -0.4585,-3.8e-4 -1.08037,0.35962 -1.55475,0.9815 -0.70338,-0.93262 -1.30887,-1.32525 -1.96375,-1.32525 -1.047,-3.8e-4 -2.02888,1.0145 -2.02888,2.2415 0,1.04738 0.63813,2.30738 2.84738,4.33912 l 0.73638,-0.60837 c -1.42376,-1.1455 -2.2745,-1.996 -2.2745,-3.04338 0,-0.85112 0.53962,-1.55437 1.30887,-1.55437 0.42562,0 0.80188,0.2125 0.99812,0.52325 -0.0981,0.18 -0.27812,0.606 -0.327,0.83487 l 1.22701,0.81813 c 0.5075,-1.40738 1.29262,-1.96375 2.11112,-1.96375 0.0979,0 0.24525,0.0168 0.35962,0.0493 l -0.0817,3.81225 1.55438,1.034 0,-7.38288 1.62,0 -0.81813,-1.37412 -10.01412,0 -0.8535,0 -7.5735,0 -0.73913,0 -3.0735,0 -0.82062,0 -3.36825,0 0.7855,1.37412 1.07962,0 0,2.02925 c 0,0.42525 -0.88325,0.91638 -1.587,0.91638 -0.35999,0 -0.88362,-0.22925 -1.27625,-0.60525 0.55626,-0.37662 0.72001,-0.753 0.72001,-1.16225 0,-1.16175 -1.66926,-2.74887 -3.06001,-2.74887 -0.42525,0 -1.57075,0.32737 -2.17637,0.573 l 0.76925,1.43962 c 1.04712,-0.44188 2.12712,-0.70338 2.47037,-0.67075 0.40938,-3.7e-4 0.6875,0.14737 0.6875,0.58925 0,0.736 -0.75262,1.37412 -2.3075,1.60375 -0.327,0.0489 -0.4085,0.147 -0.4085,0.2125 0,0.1145 0.52338,0.8345 0.89963,1.24375 0.62225,-0.13113 1.39112,-0.44225 1.81637,-0.704 0.18,0.2785 0.32738,0.73625 0.32738,1.1785 0,0.75225 -0.76925,1.3415 -1.75113,1.3415 -0.91587,0 -1.83262,-0.78525 -2.56887,-2.29075 z m 9.586,-7.756 -0.507,0.4415 c 0.73625,1.44038 1.63625,2.09475 2.74925,2.09475 1.01412,0 1.91687,-0.65437 2.53875,-1.84925 l -1.01725,-0.83438 c -0.4255,0.98151 -1.24375,1.53813 -1.89812,1.53813 -0.70338,0 -1.26,-0.327 -1.86563,-1.39075 z m 10.09887,4.81037 0,3.06001 c -0.6545,0.58924 -2.09449,1.22737 -2.7,1.22737 -0.78524,-2.5e-4 -1.07999,-0.31075 -1.07999,-0.75288 0,-0.34375 0.21287,-0.52337 0.671,-0.63787 1.04712,-0.26175 1.32562,-0.45813 1.32562,-0.76925 0,-0.29438 -0.36,-1.24363 -0.73638,-2.127 l 2.51975,-3.8e-4 z m 20.11,10.03326 0.67113,-0.40888 -1.24375,-1.99638 c 1.48925,-0.147 2.84712,-1.42612 2.84712,-2.16237 0,-0.50712 -0.40925,-1.34188 -0.89999,-2.0615 -0.16375,-0.22925 -0.37601,-0.3275 -0.85075,-0.3275 -0.3275,-2.5e-4 -1.97975,0.4415 -2.11075,0.4415 -0.16338,0 -0.31076,-0.0978 -0.31076,-0.47438 0,-0.42524 0.31076,-0.78524 0.70325,-0.80187 l 2.68375,0 c 0.16375,0 0.27775,-0.13075 0.27775,-0.39262 l 0,-1.84926 1.1785,0 0.55638,0 0.50737,0 -0.11475,6.34888 1.571,1.034 0,-7.38288 1.175,0 0.80475,0 5.04,0 0,0.91663 -2.35675,0 c -0.9815,0 -1.45625,0.52375 -1.45625,1.26 3.8e-4,0.93263 1.3745,2.71638 2.37301,2.71638 0.58924,-3.8e-4 1.68549,-0.37663 2.14362,-0.37663 0.27787,0 0.37637,0.14738 0.37637,0.2455 0,0.4745 -0.80187,1.30925 -2.06187,1.30925 -1.14525,0 -2.30712,-0.58925 -3.51812,-1.9145 l -0.55638,0.45788 c 2.07813,2.15999 3.32187,2.76837 5.07262,2.76837 1.22738,0 2.20926,-1.001 2.20926,-1.9665 0,-0.36 -0.0985,-0.58925 -0.57301,-1.32525 -0.52325,-0.8345 -0.7525,-0.94925 -1.2925,-0.94925 -0.42525,0 -2.3075,0.39262 -2.4875,0.37625 -0.2125,-0.0159 -0.44175,-0.2125 -0.44175,-0.45812 0,-0.53963 0.37663,-0.83438 0.94925,-0.83438 l 2.74925,0 c 0.16325,0 0.27775,-0.14712 0.27775,-0.39262 l 3.8e-4,-1.83301 1.37162,0 0.8535,0 1.71825,0 c 0.24513,0.36038 0.34363,0.78563 0.34363,0.98226 0,0.147 -0.19625,0.36 -0.36,0.4415 -0.31075,0.16362 -1.34213,0.54037 -1.76738,0.60549 0.40925,2.09451 1.76738,3.56738 3.19075,3.56738 0.58963,-2.5e-4 1.47263,-0.34363 2.07813,-0.75288 l -0.0819,1.50513 1.55488,1.034 0,-7.38288 0.81812,0 0.81813,0 0.37637,0 -0.1145,6.34888 1.57075,1.034 0,-7.38288 1.98,0 -0.8185,-1.37412 -3.81225,0 -0.821,0 -7.49162,0 -0.85325,0 -7.819,0 -0.80463,0 -0.81537,0 c -0.0492,-0.16363 -0.0329,-0.34363 -0.0329,-0.50738 2.5e-4,-1.04699 0.54,-1.76737 1.65288,-1.76737 1.16187,0 2.55225,0.80225 3.63262,1.76737 l 0.31075,-0.53999 c -0.91625,-0.94925 -3.15812,-2.53625 -4.58187,-2.53625 -1.37438,0 -2.29075,0.71999 -2.29075,1.91437 0,0.60563 0.22925,1.21075 0.50712,1.66925 l -1.5215,0 -0.55912,0 -6.70863,0 0.81813,1.37412 4.12587,0 0,0.933 -2.29037,0 c -0.50713,-0.033 -1.0145,0.44188 -1.0145,1.35813 0,1.047 1.1945,2.60187 2.02887,2.60187 0.589,-3.7e-4 1.48863,-0.44187 1.76675,-0.44187 0.19625,0 0.27813,0.13075 0.27813,0.26188 3.7e-4,0.42512 -0.93263,1.587 -2.53563,1.65225 -0.2455,-0.68713 -0.50737,-0.88338 -0.88362,-0.88338 -0.27813,0 -0.52375,0.26187 -0.52375,0.54 0,0.37625 0,0.94925 0.0819,1.11263 0.147,0.29724 0.63813,0.52649 0.93263,0.54287 0.29437,0.0163 0.49112,0.0655 0.65437,0.29437 0.18038,0.24563 0.75263,1.34188 1.14525,2.06151 z m 2.25525,-13.56763 -1.24325,-1.24338 -1.22737,1.22738 1.24363,1.24337 1.22699,-1.22737 z m 19.03325,3.53437 0,3.06001 c -0.65437,0.58924 -2.09437,1.22737 -2.69999,1.22737 -0.78551,-2.5e-4 -1.07963,-0.31075 -1.07963,-0.75288 0,-0.34375 0.21225,-0.52337 0.67075,-0.63787 1.04737,-0.26175 1.32525,-0.45813 1.32525,-0.76925 0,-0.29438 -0.36,-1.24363 -0.73637,-2.127 l 2.51999,-3.8e-4 z m 10.25963,0 1.06375,0 -0.11438,6.34888 1.57063,1.034 0,-7.38288 1.15937,0 0.82063,0 6.9215,0 0,1.86563 c -0.32738,-0.32713 -1.01438,-0.6215 -1.40737,-0.6215 -0.45776,-3.8e-4 -1.08001,0.35962 -1.55413,0.9815 -0.704,-0.93262 -1.30925,-1.32525 -1.96363,-1.32525 -1.04737,-3.8e-4 -2.02925,1.0145 -2.02925,2.2415 0,1.04738 0.63813,2.30738 2.84738,4.33912 l 0.73625,-0.60837 c -1.42363,-1.1455 -2.27438,-1.996 -2.27438,-3.04338 0,-0.85112 0.53963,-1.55437 1.30888,-1.55437 0.4255,0 0.80187,0.2125 0.99775,0.52325 -0.0978,0.18 -0.27775,0.606 -0.327,0.83487 l 1.22737,0.81813 c 0.50713,-1.40738 1.29263,-1.96375 2.11075,-1.96375 0.0981,0 0.24563,0.0168 0.36,0.0493 l -0.0819,3.81225 1.55488,1.034 0,-7.38288 0.88362,0 0.736,0 0.32738,0 -0.11438,6.34888 1.57075,1.034 0,-7.38288 1.19437,0 0.78563,0 0.85075,0 0,3.01113 -0.4745,0 c -0.26187,0 -0.40925,0.18 -0.40925,0.36 3.7e-4,0.58888 1.52187,2.14375 1.96375,2.14375 0.26212,-3.8e-4 0.42512,-0.13112 0.42512,-0.36038 l 0,-0.73637 2.6185,0 -0.0819,1.93075 1.5545,1.034 0,-7.38288 0.81812,0 0.81813,0 3.45262,0 0,0.94926 c 0,0.26187 -0.0821,0.42562 -1.30925,0.63812 -1.84887,0.3275 -2.20887,1.129 -2.20887,1.96375 0,1.68525 1.62,3.1745 3.7145,3.1745 0.85075,0 2.04512,-0.55637 2.68325,-1.0475 l -0.73625,-1.43963 c -0.99812,0.72001 -2.14375,1.3415 -3.076,1.3415 -0.83475,0 -1.34212,-0.37587 -1.34212,-1.04699 0,-0.96563 0.52362,-1.26 2.0455,-1.60375 1.65262,-0.37663 1.73449,-0.42513 1.73449,-0.93263 l 0,-1.99663 2.223,0 0.70626,0 5.13774,0 0,0.91663 -2.35625,0 c -0.9815,0 -1.45637,0.52375 -1.45637,1.26 0,0.93262 1.37487,2.71638 2.37262,2.71638 0.58888,-3.8e-4 1.68563,-0.37663 2.14376,-0.37663 0.27812,0 0.37624,0.14737 0.37624,0.2455 0,0.4745 -0.80187,1.30925 -2.0615,1.30925 -1.1455,0 -2.30737,-0.58925 -3.5185,-1.9145 l -0.55587,0.45788 c 2.07812,2.15999 3.3215,2.76837 5.07225,2.76837 1.22737,0 2.20888,-1.001 2.20888,-1.9665 3.7e-4,-0.36 -0.0979,-0.58925 -0.57225,-1.32525 -0.52376,-0.8345 -0.75263,-0.94925 -1.293,-0.94925 -0.42513,0 -2.30701,0.39262 -2.48701,0.37625 -0.21299,-0.0159 -0.44225,-0.2125 -0.44225,-0.45812 0,-0.53963 0.37663,-0.83438 0.94963,-0.83438 l 2.74887,0 c 0.16375,0 0.27813,-0.14713 0.27813,-0.39263 l 0,-1.833 2.22525,0 -0.81813,-1.37412 -8.77075,0 -0.70625,0 -1.7925,0 c -0.8915,-1.49525 -1.52537,-2.59475 -2.24925,-3.24 -0.60525,-0.54 -1.07975,-0.58887 -1.3745,-0.58887 -0.39262,-3.8e-4 -0.88375,0.0322 -0.88375,0.34337 0,0.19625 0.0819,0.34337 0.70375,1.45662 0.24588,-0.0821 0.62188,-0.16362 0.94925,-0.16362 0.327,0 0.60525,0.147 0.8345,0.37625 0.43188,0.417 0.80038,0.8855 1.40625,1.81625 l -4.77425,0 -0.821,0 -7.26237,0 -0.788,0 -0.83163,0 c -0.0496,-0.16363 -0.0333,-0.34363 -0.0333,-0.50738 0,-1.04699 0.54,-1.76737 1.65288,-1.76737 1.16187,0 2.55225,0.80225 3.63262,1.76737 l 0.31075,-0.53999 c -0.91625,-0.94925 -3.15812,-2.53625 -4.58187,-2.53625 -1.374,0 -2.29075,0.71999 -2.29075,1.91437 3.7e-4,0.60563 0.22925,1.21075 0.50712,1.66925 l -1.3415,0 -0.73875,0 -9.30837,0 -0.82063,0 -0.799,0 c -0.0492,-0.16363 -0.0329,-0.34363 -0.0329,-0.50738 3.7e-4,-1.04699 0.54,-1.76737 1.6525,-1.76737 1.16187,0 2.553,0.80225 3.633,1.76737 l 0.31112,-0.54 c -0.91662,-0.94925 -3.1585,-2.53625 -4.58187,-2.53625 -1.37438,0 -2.29113,0.72 -2.29113,1.91438 0,0.60562 0.22925,1.21075 0.50738,1.66925 l -2.08063,0 0.82063,1.37412 z" />
      <path
         inkscape:connector-curvature="0"
         id="path502"
         style="fill:#231f20;fill-opacity:1;fill-rule:evenodd;stroke:none"
         d="m 316.66943,401.45756 c 0,1.289 0.0836,2.17025 0.25475,2.64225 0.168,0.47237 0.46625,0.70975 0.88937,0.70975 0.42026,0 0.71288,-0.23462 0.88088,-0.70087 0.16512,-0.46663 0.24912,-1.35038 0.24912,-2.65075 0,-1.30113 -0.084,-2.18725 -0.24912,-2.65675 -0.168,-0.46951 -0.46062,-0.70413 -0.88088,-0.70413 -0.42312,0 -0.72137,0.23738 -0.88937,0.71262 -0.17112,0.47476 -0.25475,1.35888 -0.25475,2.64788 z m -3.49688,0.0844 c 0,-2.04875 0.40538,-3.63338 1.21675,-4.76013 0.81425,-1.12712 1.9555,-1.68912 3.42425,-1.68912 1.46625,-3.8e-4 2.60188,0.562 3.41013,1.68587 0.80538,1.1215 1.20825,2.70887 1.20825,4.76338 0,2.048 -0.40287,3.63287 -1.2055,4.754 -0.8025,1.12112 -1.941,1.68025 -3.41288,1.68025 -1.47474,0 -2.61887,-0.562 -3.42712,-1.68625 -0.8085,-1.12113 -1.21387,-2.70601 -1.21387,-4.748 z m 9.97438,-5.47588 c 0,-0.53013 0.17962,-0.97612 0.54212,-1.3355 0.36213,-0.35925 0.80825,-0.53888 1.33263,-0.53888 0.52762,0 0.96775,0.17963 1.32412,0.53888 0.35651,0.359 0.53575,0.80537 0.53575,1.3355 0,0.52125 -0.17925,0.96487 -0.53887,1.32975 -0.35938,0.365 -0.79938,0.54788 -1.321,0.54788 -0.52438,-3.8e-4 -0.9705,-0.18288 -1.33263,-0.54501 -0.3625,-0.3625 -0.54212,-0.80537 -0.54212,-1.33262 z m 0.29588,11.66387 0,-8.69137 3.14925,0 0,8.69137 -3.14925,0 z m 4.55737,0 0,-13.52087 3.149,0 0,13.52087 -3.149,0 z m 8.96925,0 0,-12.39137 3.4625,0 0,12.39137 -3.4625,0 z m 4.87337,0 0,-8.69137 3.02138,0 0,1.289 c 0.2955,-0.4925 0.64062,-0.85425 1.03462,-1.08912 0.39651,-0.23463 0.86325,-0.35338 1.40213,-0.35338 0.65487,0 1.15588,0.19425 1.49775,0.58537 0.342,0.39088 0.51275,0.96488 0.51275,1.72388 l 0,6.53562 -3.12312,0 0,-5.06124 c 0,-0.264 -0.052,-0.4635 -0.15338,-0.59676 -0.10175,-0.13349 -0.25513,-0.19975 -0.45775,-0.19975 -0.18538,0 -0.33625,0.075 -0.44613,0.22888 -0.11025,0.15338 -0.16512,0.35888 -0.16512,0.61962 l 0,5.00925 -3.12313,0 z m 11.66075,-4.3455 c 0,0.61725 0.0634,1.08038 0.19088,1.39038 0.128,0.31038 0.319,0.46663 0.57375,0.46663 0.26675,0 0.47513,-0.16226 0.62287,-0.48688 0.15063,-0.32488 0.22613,-0.782 0.22613,-1.37013 0,-0.58824 -0.0755,-1.046 -0.22613,-1.37025 -0.14774,-0.3245 -0.35612,-0.48687 -0.62287,-0.48687 -0.25475,0 -0.44612,0.15625 -0.57375,0.46638 -0.1275,0.31 -0.19088,0.7735 -0.19088,1.39074 z m 1.61363,4.3455 0,-0.95924 c -0.29563,0.40612 -0.60838,0.70724 -0.9415,0.89825 -0.33313,0.19424 -0.70125,0.28987 -1.10413,0.28987 -0.87724,0 -1.55837,-0.39962 -2.04199,-1.20225 -0.48401,-0.79975 -0.72425,-1.92362 -0.72425,-3.37212 0,-1.44288 0.2435,-2.56713 0.72987,-3.36975 0.4865,-0.8025 1.16475,-1.20501 2.03637,-1.20501 0.39688,0 0.75938,0.0956 1.08638,0.28413 0.32775,0.19063 0.64912,0.4925 0.95925,0.90388 l 0,-5.78863 3.14925,0 0,13.52087 -3.14925,0 z m 4.12862,-11.66387 c 0,-0.53013 0.17925,-0.97612 0.54138,-1.3355 0.36212,-0.35925 0.80825,-0.53888 1.33262,-0.53888 0.52725,0 0.96775,0.17963 1.32388,0.53888 0.35675,0.359 0.536,0.80537 0.536,1.3355 0,0.52125 -0.17963,0.96487 -0.5385,1.32975 -0.35963,0.365 -0.79975,0.54788 -1.32138,0.54788 -0.52437,-3.8e-4 -0.9705,-0.18288 -1.33262,-0.54501 -0.36213,-0.3625 -0.54175,-0.80537 -0.54138,-1.33262 z m 0.29513,11.66387 0,-8.69137 3.14925,0 0,8.69137 -3.14925,0 z m 7.492,-4.3455 c 0,0.61725 0.0637,1.08038 0.19137,1.39326 0.12713,0.31 0.3185,0.46625 0.57325,0.46625 0.2555,0 0.44925,-0.15875 0.5825,-0.48088 0.13363,-0.3185 0.19988,-0.77912 0.19988,-1.37863 0,-0.61125 -0.0662,-1.07475 -0.19988,-1.39362 -0.13325,-0.32175 -0.32737,-0.48113 -0.5825,-0.48113 -0.24875,0 -0.44012,0.15976 -0.5705,0.4755 -0.13,0.31563 -0.19412,0.78513 -0.19412,1.39925 z m 1.614,4.3455 0,-0.95924 c -0.31013,0.42025 -0.63175,0.72462 -0.962,0.91599 -0.3335,0.19388 -0.69238,0.2895 -1.08363,0.2895 -0.866,0 -1.5445,-0.4025 -2.0335,-1.20787 -0.49,-0.80862 -0.73312,-1.93537 -0.73312,-3.38388 0,-1.46024 0.24025,-2.59012 0.724,-3.3895 0.484,-0.803 1.16462,-1.20262 2.04262,-1.20262 0.39688,0 0.759,0.0956 1.08638,0.28375 0.3275,0.19138 0.64912,0.49287 0.95887,0.90425 l 3.8e-4,-0.94175 3.14925,0 0,8.69137 -3.14925,0 z m 8.73462,0 0,-12.39137 3.4795,0 0,9.3175 2.53775,0 0,3.07387 -6.01725,0 z m 6.68938,-11.66387 c 0,-0.53013 0.17962,-0.97612 0.54137,-1.3355 0.3625,-0.35925 0.80863,-0.53888 1.333,-0.53888 0.52763,0 0.96775,0.17963 1.32375,0.53888 0.35688,0.359 0.53613,0.80537 0.53613,1.3355 0,0.52125 -0.17925,0.96487 -0.53888,1.32975 -0.359,0.365 -0.79937,0.54788 -1.321,0.54788 -0.52437,-3.8e-4 -0.9705,-0.18288 -1.333,-0.54501 -0.36175,-0.3625 -0.54137,-0.80537 -0.54137,-1.33262 z m 0.2955,11.66387 0,-8.69137 3.14925,0 0,8.69137 -3.14925,0 z m 4.43837,0 0,-8.69137 3.02175,0 0,1.289 c 0.2955,-0.49813 0.64025,-0.866 1.04025,-1.10375 0.3965,-0.23775 0.86313,-0.356 1.39638,-0.356 0.49537,-3.8e-4 0.90637,0.12187 1.23412,0.36212 0.32425,0.2405 0.562,0.60551 0.707,1.09801 0.243,-0.49851 0.55625,-0.86638 0.93288,-1.10413 0.3795,-0.23775 0.837,-0.356 1.37587,-0.356 0.6605,-3.8e-4 1.16788,0.197 1.51513,0.59375 0.348,0.39688 0.52162,0.97375 0.52162,1.73275 l 0,6.53562 -3.14937,0 0,-5.06124 c 0,-0.26938 -0.0492,-0.47238 -0.14488,-0.60275 -0.0954,-0.13038 -0.24312,-0.19376 -0.44012,-0.19376 -0.17963,0 -0.32138,0.075 -0.423,0.22563 -0.101,0.14813 -0.15375,0.3565 -0.15375,0.62287 l 0,5.00925 -3.13163,0 0,-5.06124 c 0,-0.26938 -0.0493,-0.47238 -0.14487,-0.60275 -0.0954,-0.13038 -0.24313,-0.19376 -0.4405,-0.19376 -0.185,0 -0.333,0.075 -0.43725,0.22563 -0.1045,0.14813 -0.15663,0.3565 -0.15663,0.62287 l 0,5.00925 -3.123,0 z m 12.707,-11.66387 c 0,-0.53013 0.17925,-0.97612 0.54175,-1.3355 0.36213,-0.35925 0.80825,-0.53888 1.33263,-0.53888 0.52725,0 0.96762,0.17963 1.32412,0.53888 0.35613,0.359 0.53575,0.80537 0.53575,1.3355 0,0.52125 -0.17962,0.96487 -0.53887,1.32975 -0.35938,0.365 -0.79938,0.54788 -1.321,0.54788 -0.52438,-3.8e-4 -0.9705,-0.18288 -1.33263,-0.54501 -0.36212,-0.3625 -0.54175,-0.80537 -0.54175,-1.33262 z m 0.2955,11.66387 0,-8.69137 3.14888,0 0,8.69137 -3.14888,0 z m 4.95713,0 0,-5.94212 -1.04288,0 0,-2.74925 1.04288,0 0,-2.55513 3.16662,0 0,2.55513 1.12963,0 0,2.74925 -1.12963,0 0,5.94212 -3.16662,0 z m 7.64812,-5.44074 1.8575,0 c 0,-0.4925 -0.0788,-0.86351 -0.23212,-1.10976 -0.15663,-0.24587 -0.39125,-0.3675 -0.70088,-0.3675 -0.24337,0 -0.44075,0.12163 -0.5885,0.36176 -0.15062,0.24062 -0.26362,0.61162 -0.336,1.1155 z m 4.488,2.40125 c -0.12512,1.02012 -0.51912,1.82237 -1.18525,2.40812 -0.66325,0.585 -1.51512,0.87762 -2.55787,0.87762 -1.22288,0 -2.16463,-0.39399 -2.82513,-1.18487 -0.66325,-0.78837 -0.9935,-1.912 -0.9935,-3.37212 0,-1.46625 0.333,-2.60476 1.00238,-3.413 0.6665,-0.8085 1.59912,-1.21388 2.7985,-1.21388 1.30962,0 2.283,0.35963 2.92887,1.07787 0.64638,0.71825 0.96775,1.80176 0.96775,3.25063 2.5e-4,0.17075 0,0.29838 -0.002,0.38513 -0.002,0.09 -0.0112,0.17112 -0.023,0.24337 l -4.59787,0 0,0.11875 c 0,0.64025 0.0724,1.09812 0.21725,1.37338 0.14212,0.27812 0.37987,0.41712 0.70725,0.41712 0.24312,0 0.44012,-0.078 0.58787,-0.2375 0.1505,-0.15938 0.26075,-0.40287 0.32738,-0.73025 l 2.64825,-3.8e-4 z m 4.08188,-1.30601 c 0,0.61725 0.0635,1.08038 0.191,1.39038 0.1275,0.31038 0.3185,0.46663 0.57362,0.46663 0.2665,0 0.47525,-0.16226 0.623,-0.48688 0.15088,-0.32488 0.226,-0.782 0.226,-1.37013 3.8e-4,-0.58824 -0.0755,-1.046 -0.226,-1.37025 -0.14775,-0.3245 -0.3565,-0.48687 -0.623,-0.48687 -0.25512,0 -0.44612,0.15625 -0.57362,0.46638 -0.12725,0.31 -0.191,0.77349 -0.191,1.39074 z m 1.614,4.3455 0,-0.95924 c -0.29625,0.40612 -0.60875,0.70724 -0.94213,0.89825 -0.33312,0.19424 -0.70087,0.28987 -1.10375,0.28987 -0.87775,0 -1.55875,-0.39962 -2.04237,-1.20225 -0.48375,-0.79975 -0.72425,-1.92362 -0.72425,-3.37213 0,-1.44287 0.243,-2.56712 0.73025,-3.36974 0.4865,-0.8025 1.16437,-1.20501 2.03637,-1.20501 0.39713,0 0.75925,0.0956 1.08638,0.28413 0.32775,0.19063 0.64912,0.4925 0.95912,0.90388 l 3.8e-4,-5.78863 3.14887,0 0,13.52087 -3.14887,0 z" />
      <path
         inkscape:connector-curvature="0"
         id="path512"
         style="fill:#ed1c24;fill-opacity:1;fill-rule:evenodd;stroke:none"
         d="m 277.4673,396.60256 0.0705,0 c 2.09875,0.557 4.35163,0.81312 6.52538,0.81312 2.172,0 4.43975,-0.22175 6.59588,-0.78087 l 0,19.75525 -13.19176,0 0,-19.7875 z" />
      <path
         inkscape:connector-curvature="0"
         id="path514"
         style="fill:#231f20;fill-opacity:1;fill-rule:evenodd;stroke:none"
         d="m 284.06318,368.33431 c 4.12475,0 8.747,1.04175 11.48487,3.50725 2.70251,2.49975 3.5915,6.3885 3.5915,10.1385 0,3.7845 -0.60437,7.49975 -3.34237,9.96513 -3.09363,2.81237 -7.60925,3.71512 -11.734,3.71512 -4.12438,-2.5e-4 -8.56913,-1.04175 -11.30738,-3.50675 -2.70212,-2.4655 -3.76862,-6.38863 -3.76862,-10.1735 0,-4.0625 1.031,-7.604 3.98225,-10.27738 2.70212,-2.50025 6.96937,-3.368 11.09375,-3.36837 z m -0.0177,8.13475 c 1.82125,0 3.8335,0.43725 5.01562,1.4365 1.2135,0.9985 1.597,2.59088 1.597,4.08937 0,1.52963 -0.28737,3.02801 -1.46912,4.02726 -1.34188,1.12362 -3.32225,1.4985 -5.1435,1.4985 -1.78862,0 -3.73712,-0.40613 -4.91875,-1.405 -1.214,-0.99876 -1.66113,-2.59113 -1.66113,-4.12075 0,-1.65438 0.44713,-3.05938 1.72488,-4.15213 1.182,-0.99925 3.06638,-1.37337 4.855,-1.37375" />
    </g>
  </g>
</svg>
