{
  "accessors": [
    {
      "bufferView": 2,
      "componentType": 5126,
      "count": 36065,
      "max": [
        2.6394710540771484,
        0.2861807942390442,
        2.639470338821411
      ],
      "min": [
        -2.6394710540771484,
        -0.5289298295974731,
        -2.639470338821411
      ],
      "type": "VEC3"
    },
    {
      "bufferView": 2,
      "byteOffset": 432780,
      "componentType": 5126,
      "count": 36065,
      "max": [
        1.0,
        1.0,
        1.0
      ],
      "min": [
        -1.0,
        -1.0,
        -1.0
      ],
      "type": "VEC3"
    },
    {
      "bufferView": 3,
      "componentType": 5126,
      "count": 36065,
      "max": [
        1.0,
        1.0,
        1.0,
        1.0
      ],
      "min": [
        -1.0,
        -1.0,
        -1.0,
        -1.0
      ],
      "type": "VEC4"
    },
    {
      "bufferView": 1,
      "componentType": 5126,
      "count": 36065,
      "max": [
        0.9983249306678772,
        0.9982386827468872
      ],
      "min": [
        0.0016746693290770054,
        0.0016738611739128828
      ],
      "type": "VEC2"
    },
    {
      "bufferView": 0,
      "componentType": 5125,
      "count": 106755,
      "type": "SCALAR"
    },
    {
      "bufferView": 2,
      "byteOffset": 865560,
      "componentType": 5126,
      "count": 1296,
      "max": [
        2.6258323192596436,
        -0.13142792880535126,
        2.625260353088379
      ],
      "min": [
        -2.6258323192596436,
        -0.41652488708496094,
        -2.625260353088379
      ],
      "type": "VEC3"
    },
    {
      "bufferView": 2,
      "byteOffset": 881112,
      "componentType": 5126,
      "count": 1296,
      "max": [
        0.9999843239784241,
        0.21646595001220703,
        0.9999976754188538
      ],
      "min": [
        -0.9999843239784241,
        -0.9999995231628418,
        -0.9999976754188538
      ],
      "type": "VEC3"
    },
    {
      "bufferView": 3,
      "byteOffset": 577040,
      "componentType": 5126,
      "count": 1296,
      "max": [
        1.0,
        1.0,
        1.0,
        1.0
      ],
      "min": [
        -1.0,
        -1.0,
        -1.0,
        1.0
      ],
      "type": "VEC4"
    },
    {
      "bufferView": 1,
      "byteOffset": 288520,
      "componentType": 5126,
      "count": 1296,
      "max": [
        0.998374342918396,
        0.9960694909095764
      ],
      "min": [
        0.0016195994103327394,
        0.001621945295482874
      ],
      "type": "VEC2"
    },
    {
      "bufferView": 0,
      "byteOffset": 427020,
      "componentType": 5125,
      "count": 2088,
      "type": "SCALAR"
    }
  ],
  "asset": {
    "extras": {
      "author": "MightyPinecone (https://sketchfab.com/Mighty.Pinecone)",
      "license": "CC-BY-4.0 (http://creativecommons.org/licenses/by/4.0/)",
      "source": "https://sketchfab.com/3d-models/old-rusty-townhall-clock-ue5-9889a8cbde2e4e61802b73cc44daf934",
      "title": "Old Rusty TownHall Clock |UE5|"
    },
    "generator": "Sketchfab-15.30.0",
    "version": "2.0"
  },
  "bufferViews": [
    {
      "buffer": 0,
      "byteLength": 435372,
      "name": "floatBufferViews",
      "target": 34963
    },
    {
      "buffer": 0,
      "byteLength": 298888,
      "byteOffset": 435372,
      "byteStride": 8,
      "name": "floatBufferViews",
      "target": 34962
    },
    {
      "buffer": 0,
      "byteLength": 896664,
      "byteOffset": 734260,
      "byteStride": 12,
      "name": "floatBufferViews",
      "target": 34962
    },
    {
      "buffer": 0,
      "byteLength": 597776,
      "byteOffset": 1630924,
      "byteStride": 16,
      "name": "floatBufferViews",
      "target": 34962
    }
  ],
  "buffers": [
    {
      "byteLength": 2228700,
      "uri": "scene.bin"
    }
  ],
  "images": [
    {
      "uri": "textures/Material.001_baseColor.jpeg"
    },
    {
      "uri": "textures/Material.001_metallicRoughness.png"
    },
    {
      "uri": "textures/Material.001_normal.png"
    },
    {
      "uri": "textures/Material.002_baseColor.jpeg"
    },
    {
      "uri": "textures/Material.002_metallicRoughness.png"
    },
    {
      "uri": "textures/Material.002_normal.png"
    }
  ],
  "materials": [
    {
      "doubleSided": true,
      "name": "Material.001",
      "normalTexture": {
        "index": 2
      },
      "occlusionTexture": {
        "index": 1
      },
      "pbrMetallicRoughness": {
        "baseColorTexture": {
          "index": 0
        },
        "metallicRoughnessTexture": {
          "index": 1
        }
      }
    },
    {
      "doubleSided": true,
      "name": "Material.002",
      "normalTexture": {
        "index": 5
      },
      "occlusionTexture": {
        "index": 4
      },
      "pbrMetallicRoughness": {
        "baseColorTexture": {
          "index": 3
        },
        "metallicRoughnessTexture": {
          "index": 4
        }
      }
    }
  ],
  "meshes": [
    {
      "name": "TownHall_Clock_Material.001_0",
      "primitives": [
        {
          "attributes": {
            "NORMAL": 1,
            "POSITION": 0,
            "TANGENT": 2,
            "TEXCOORD_0": 3
          },
          "indices": 4,
          "material": 0,
          "mode": 4
        }
      ]
    },
    {
      "name": "TownHall_Clock_Material.002_0",
      "primitives": [
        {
          "attributes": {
            "NORMAL": 6,
            "POSITION": 5,
            "TANGENT": 7,
            "TEXCOORD_0": 8
          },
          "indices": 9,
          "material": 1,
          "mode": 4
        }
      ]
    }
  ],
  "nodes": [
    {
      "children": [
        1
      ],
      "matrix": [
        1.0,
        0.0,
        0.0,
        0.0,
        0.0,
        2.220446049250313e-16,
        -1.0,
        0.0,
        0.0,
        1.0,
        2.220446049250313e-16,
        0.0,
        0.0,
        0.0,
        0.0,
        1.0
      ],
      "name": "Sketchfab_model"
    },
    {
      "children": [
        2
      ],
      "matrix": [
        0.009999999776482582,
        0.0,
        0.0,
        0.0,
        0.0,
        0.0,
        0.009999999776482582,
        0.0,
        0.0,
        -0.009999999776482582,
        0.0,
        0.0,
        0.0,
        0.0,
        0.0,
        1.0
      ],
      "name": "d033331ecc8f49ac869eeac5ed06b7ad.fbx"
    },
    {
      "children": [
        3
      ],
      "name": "RootNode"
    },
    {
      "children": [
        4,
        5
      ],
      "matrix": [
        75.17539978027344,
        0.0,
        0.0,
        0.0,
        0.0,
        -1.2247627205754682e-05,
        -75.17539978027244,
        0.0,
        0.0,
        75.17539978027244,
        -1.2247627205754682e-05,
        0.0,
        0.0,
        0.0,
        -2.8312950134277344,
        1.0
      ],
      "name": "TownHall_Clock"
    },
    {
      "mesh": 0,
      "name": "TownHall_Clock_Material.001_0"
    },
    {
      "mesh": 1,
      "name": "TownHall_Clock_Material.002_0"
    }
  ],
  "samplers": [
    {
      "magFilter": 9729,
      "minFilter": 9987,
      "wrapS": 10497,
      "wrapT": 10497
    }
  ],
  "scene": 0,
  "scenes": [
    {
      "name": "Sketchfab_Scene",
      "nodes": [
        0
      ]
    }
  ],
  "textures": [
    {
      "sampler": 0,
      "source": 0
    },
    {
      "sampler": 0,
      "source": 1
    },
    {
      "sampler": 0,
      "source": 2
    },
    {
      "sampler": 0,
      "source": 3
    },
    {
      "sampler": 0,
      "source": 4
    },
    {
      "sampler": 0,
      "source": 5
    }
  ]
}
