<?xml version="1.0" encoding="UTF-8"?>
<svg viewBox="0 0 159.30359 173.68251" xmlns="http://www.w3.org/2000/svg">
 <defs>
  <filter id="a" x="-.35342" y="-.33591" width="1.7068" height="1.6718">
   <feGaussianBlur stdDeviation="17.33217"/>
  </filter>
 </defs>
 <g transform="matrix(.8846 0 0 .8846 -566.12 -681.85)">
  <path transform="matrix(1.0803 0 0 .25246 395 796.83)" d="m357.44 503.06a49.671 49.671 0 1 1 -99.342 0 49.671 49.671 0 1 1 99.342 0z" fill="#483737" fill-rule="evenodd" filter="url(#a)" stroke="#666" stroke-width="1.2631"/>
  <path transform="matrix(1.3495 0 0 1.4205 301.41 137.79)" d="m357.44 503.06a49.671 49.671 0 1 1 -99.342 0 49.671 49.671 0 1 1 99.342 0z" fill="#f60" fill-rule="evenodd" stroke="#333" stroke-width="1.2631"/>
  <path d="m724.3 782.26c14.975 12.943 24.528 32.553 24.528 54.525-1e-5 38.947-30.006 70.56-67.006 70.56-2.5694 0-5.1224-0.15182-7.6168-0.44853 11.573 10.015 26.392 16.035 42.531 16.035 37 0 67.033-31.613 67.033-70.56 0-36.252-26.03-66.148-59.469-70.112z" fill="#d45500" fill-rule="evenodd"/>
  <path d="m649.74 848.52s18.021-36.283 65.477-40.087c51.256-4.1079 66.484 24.687 66.484 24.687" fill="none" stroke="#e3dbdb" stroke-width=".65577"/>
  <path d="m649.74 850.31s18.021-36.895 65.477-40.698c51.256-4.1079 66.484 25.299 66.484 25.299" fill="none" stroke="#666" stroke-width="1.7487"/>
  <path d="m712.32 781.86s-40.488 11.306-37.436 40.493c3.7072 35.156 103.05 55.35 103.05 55.35" fill="none" stroke="#e3dbdb" stroke-width=".65577"/>
  <path d="m714.29 781.86s-41.242 11.306-38.19 40.493c3.7072 35.156 103.27 54.499 103.27 54.499" fill="none" stroke="#4d4d4d" stroke-width="1.7487"/>
  <path d="m663.01 809.02s-11.132 29.468 18.903 76.226c21.821 33.971 63.48 30.663 63.48 30.663" fill="none" stroke="#e3dbdb" stroke-width=".65577"/>
  <path d="m664 809.02s-11.124 29.468 19.415 76.12c22.104 33.767 64.038 29.831 64.038 29.831" fill="none" stroke="#4d4d4d" stroke-width="1.7487"/>
  <path d="m652.48 831.39s-2.7811 12.433 0.24379 29.168 11.625 36.611 11.625 36.611" fill="none" stroke="#e3dbdb" stroke-width=".65577"/>
  <path d="m652.75 831.28s-1.8993 12.549 1.1255 29.284 11.294 36.727 11.294 36.727" fill="none" stroke="#4d4d4d" stroke-width="1.7487"/>
  <path d="m649.74 850.31s18.021-36.895 65.477-40.698c51.256-4.1079 66.484 25.299 66.484 25.299" fill="none" stroke="#4d4d4d" stroke-width="1.7487"/>
  <path transform="matrix(1.3495 0 0 1.4205 301.41 137.79)" d="m357.44 503.06a49.671 49.671 0 1 1 -99.342 0 49.671 49.671 0 1 1 99.342 0z" fill="none" stroke="#4d4d4d" stroke-width="1.2631"/>
 </g>
</svg>
